# xmcd
#
# Track frame offsets: 
#        150
#        22913
#        41653
#        54090
#        72468
#        93743
#        111003
#        130635
#        146515
#        164670
#
# Disc length: 2498 seconds
#
# Revision: 0
# Processed by: cddbd v1.5.2PL0 Copyright (c) Steve Scherf et al.
# Submitted via: ExactAudioCopy v1.1
#
DISCID=8509c00a
DTITLE=蔡琴 - 老歌
DYEAR=1900
DGENRE=Oldies
TTITLE0=癡癡的等
TTITLE1=寒雨曲
TTITLE2=落花流水
TTITLE3=是夢是真
TTITLE4=總有一天等到你
TTITLE5=三年
TTITLE6=訴衷情
TTITLE7=紅淚
TTITLE8=一年又一年
TTITLE9=恨不相逢未嫁時
EXTD=
EXTT0=
EXTT1=
EXTT2=
EXTT3=
EXTT4=
EXTT5=
EXTT6=
EXTT7=
EXTT8=
EXTT9=
PLAYORDER=
